<svg version="1.1" id="Layer_1" xmlns="http://www.w3.org/2000/svg" xmlns:xlink="http://www.w3.org/1999/xlink" x="0px" y="0px"
	 width="100%" viewBox="0 0 2000 2000" enable-background="new 0 0 2000 2000" xml:space="preserve">
<path fill="#000000" opacity="1.000000" stroke="none" 
	d="
M1051.000000,2001.000000 
	C700.666687,2001.000000 350.833344,2001.000000 1.000000,2001.000000 
	C1.000000,1334.333374 1.000000,667.666687 1.000000,1.000000 
	C667.666687,1.000000 1334.333374,1.000000 2001.000000,1.000000 
	C2001.000000,667.666687 2001.000000,1334.333374 2001.000000,2001.000000 
	C1684.500000,2001.000000 1368.000000,2001.000000 1051.000000,2001.000000 
M1045.679565,1082.500122 
	C1045.496948,908.689575 1045.315063,734.878967 1045.124268,561.068420 
	C1045.120605,557.736328 1045.221680,554.384705 1044.913086,551.075745 
	C1043.539429,536.347839 1036.485474,525.475647 1022.210388,520.662415 
	C1016.187683,518.631775 1009.528198,517.630127 1003.157104,517.625671 
	C942.516907,517.583191 881.876526,517.858398 821.236145,518.034058 
	C812.944153,518.058105 804.652039,518.037415 796.030151,518.037415 
	C796.030151,522.454956 796.313416,525.956604 795.954224,529.391113 
	C795.557129,533.187378 797.012634,535.299927 800.172485,537.369263 
	C815.338806,547.301514 830.256714,557.612732 845.409485,567.566162 
	C848.272827,569.447021 849.259277,571.408447 849.254883,574.780701 
	C849.159058,648.438171 849.182617,722.095825 849.183289,795.753418 
	C849.183289,797.317017 849.183350,798.880676 849.183350,800.873474 
	C843.438049,797.359192 838.492126,794.021423 833.258911,791.220337 
	C828.001953,788.406555 822.612488,785.702271 817.017029,783.680786 
	C770.483643,766.868530 722.817261,760.553894 673.673706,768.832581 
	C601.554077,780.981812 545.686707,818.188843 505.743164,879.085388 
	C474.333679,926.971191 459.492767,980.661804 453.070129,1036.989502 
	C449.627106,1067.185547 449.365631,1097.478394 450.938171,1127.821045 
	C453.198212,1171.428467 460.216522,1214.126099 475.194824,1255.269287 
	C493.061371,1304.346069 519.892151,1347.432495 561.576843,1379.909790 
	C613.335938,1420.236206 671.635193,1436.224854 736.381653,1422.748169 
	C784.213135,1412.792358 821.807251,1387.030640 847.068176,1344.485352 
	C847.502991,1343.752930 848.098450,1343.115967 849.300781,1341.541626 
	C849.300781,1367.663330 849.300781,1392.606323 849.300781,1417.773193 
	C933.180237,1417.773193 1016.742249,1417.773193 1100.751343,1417.773193 
	C1100.751343,1414.104126 1100.478638,1410.617188 1100.824341,1407.192627 
	C1101.206421,1403.408447 1099.804565,1401.221802 1096.639160,1399.121704 
	C1081.116211,1388.822876 1065.842163,1378.148926 1050.319946,1367.848999 
	C1047.057251,1365.684326 1045.795532,1363.444092 1045.797852,1359.466187 
	C1045.850708,1267.477539 1045.751831,1175.488892 1045.679565,1082.500122 
M1271.907715,1548.829224 
	C1266.557129,1551.109741 1261.382935,1550.302368 1256.086060,1548.354736 
	C1252.961426,1547.206055 1249.180298,1545.539673 1246.341064,1546.355591 
	C1238.277344,1548.673218 1229.810791,1550.980347 1222.822266,1555.385132 
	C1202.308594,1568.314209 1200.597412,1593.894287 1218.329834,1610.271484 
	C1227.177246,1618.442749 1237.834229,1622.032227 1249.576782,1623.075073 
	C1251.005859,1623.202026 1253.233643,1623.077515 1253.692749,1623.874756 
	C1255.702026,1627.363770 1258.758545,1626.847900 1261.615601,1626.251343 
	C1271.525146,1624.182007 1281.628906,1622.614136 1291.203735,1619.469971 
	C1305.818848,1614.670776 1319.893066,1608.230957 1334.491821,1603.373901 
	C1354.042114,1596.869751 1373.664917,1590.306152 1394.292969,1587.977783 
	C1422.908447,1584.747803 1451.524048,1581.465088 1480.193115,1578.775757 
	C1527.493530,1574.338989 1574.888794,1571.328857 1622.428955,1573.370972 
	C1644.875244,1574.335205 1667.400635,1575.190430 1689.682495,1577.840576 
	C1721.474731,1581.621704 1753.267334,1584.533203 1785.279053,1584.827881 
	C1809.062256,1585.046753 1825.325317,1574.175903 1834.379639,1551.982544 
	C1843.838989,1528.796265 1848.357666,1504.661865 1847.740601,1479.826294 
	C1846.735596,1439.368774 1845.393799,1398.897339 1842.992554,1358.503052 
	C1840.443359,1315.619873 1837.102417,1272.761475 1832.988647,1229.999878 
	C1828.672363,1185.130371 1823.707886,1140.362183 1813.337036,1096.259155 
	C1807.836548,1072.867920 1805.723633,1048.635254 1802.787109,1024.695923 
	C1797.776001,983.843018 1794.002197,942.851868 1794.106934,901.650085 
	C1794.196899,866.325928 1794.433472,830.978699 1795.795532,795.687622 
	C1797.254517,757.883606 1793.106934,720.522583 1789.595337,683.048462 
	C1787.696289,662.783569 1787.899048,642.548645 1791.630493,622.327698 
	C1795.550659,601.084656 1798.391846,579.640564 1801.590454,558.267212 
	C1803.435791,545.935608 1804.274292,533.398865 1806.937500,521.255310 
	C1812.668945,495.120331 1819.485229,469.224854 1825.418945,443.131592 
	C1827.138428,435.569733 1825.834595,427.042694 1828.676514,420.085541 
	C1832.067383,411.784912 1829.045654,406.574341 1824.127930,401.394073 
	C1813.048828,389.723328 1799.606689,381.656311 1784.557251,376.010071 
	C1774.314697,372.167236 1765.723389,374.453094 1757.909058,381.589844 
	C1752.254028,386.754486 1746.551880,391.874481 1740.715332,396.831482 
	C1732.344482,403.940948 1723.273560,404.435822 1713.925903,398.907959 
	C1709.349121,396.201477 1704.804810,393.367554 1700.581055,390.151093 
	C1688.779419,381.163666 1676.268677,373.759491 1661.272095,371.717468 
	C1648.258667,369.945526 1635.250244,367.997833 1622.176758,366.831238 
	C1574.937012,362.615814 1527.602295,363.337799 1480.327515,365.676239 
	C1446.238892,367.362396 1412.228271,370.599426 1378.174683,373.031403 
	C1353.595215,374.786774 1328.946655,375.801025 1304.440796,378.260498 
	C1293.494995,379.359070 1282.231934,381.797241 1272.147705,386.069794 
	C1249.178345,395.801605 1243.464355,422.290497 1259.979736,439.986176 
	C1270.121216,450.852356 1283.412598,455.001160 1298.073486,454.048615 
	C1316.514038,452.850525 1334.970093,451.605957 1353.337158,449.620392 
	C1395.427856,445.070129 1437.614380,441.931274 1479.931885,441.281525 
	C1515.252808,440.739227 1550.596802,440.763763 1585.915649,441.381134 
	C1605.202637,441.718262 1624.510376,443.302063 1643.714111,445.254852 
	C1661.577759,447.071350 1679.314331,450.134583 1697.109985,452.625397 
	C1704.443726,453.651825 1711.786133,454.616577 1719.367554,455.642242 
	C1717.020630,474.714966 1715.569336,493.338837 1712.298096,511.637360 
	C1705.972534,547.021179 1699.197632,582.305176 1695.466187,618.101624 
	C1692.460327,646.937805 1688.971436,675.749573 1690.820435,704.809082 
	C1691.792236,720.082520 1694.169556,735.277161 1694.865967,750.555115 
	C1696.026123,776.001831 1696.927734,801.487610 1696.900269,826.955811 
	C1696.837158,885.255188 1693.483887,943.637634 1700.187988,1001.758911 
	C1703.214844,1028.000732 1706.024170,1054.574951 1712.657959,1080.027344 
	C1725.108521,1127.797729 1733.046021,1175.987671 1735.223755,1225.245239 
	C1735.995850,1242.710083 1737.355591,1260.163818 1738.990845,1277.571655 
	C1740.640503,1295.133545 1743.297363,1312.601196 1744.916504,1330.165161 
	C1747.408447,1357.197021 1749.825806,1384.249268 1751.467529,1411.341919 
	C1753.089111,1438.103149 1754.182861,1464.918945 1754.525391,1491.723389 
	C1754.655518,1501.907715 1752.771851,1512.294800 1750.464722,1522.279419 
	C1748.492676,1530.814087 1743.443970,1532.206787 1736.359253,1527.040527 
	C1731.541260,1523.527222 1727.015869,1519.485718 1722.892578,1515.171143 
	C1711.987427,1503.760498 1698.930176,1496.553223 1683.217285,1495.153076 
	C1660.170044,1493.099365 1637.061890,1490.196533 1613.990967,1490.294678 
	C1577.872925,1490.448120 1541.675903,1491.679199 1505.673706,1494.508667 
	C1457.058228,1498.329468 1408.575317,1503.906982 1360.077026,1509.117554 
	C1338.345581,1511.452148 1317.660767,1517.329834 1299.471436,1530.245483 
	C1290.654785,1536.505737 1281.548462,1542.358154 1271.907715,1548.829224 
M323.819305,681.216248 
	C325.474396,653.601990 328.196228,626.090942 334.005341,599.022766 
	C339.793732,572.051392 346.579834,545.294128 352.358551,518.320862 
	C356.823883,497.478088 360.414398,476.423218 359.679932,454.973846 
	C359.543488,450.989258 360.976013,450.043121 364.250214,448.997375 
	C383.890747,442.724335 403.585602,443.931122 423.503723,447.505585 
	C440.017120,450.469055 456.613281,454.073975 473.284393,454.787537 
	C496.025452,455.760864 518.913208,454.951202 541.662109,453.613434 
	C562.408875,452.393372 583.115601,449.908905 603.728760,447.150604 
	C629.661072,443.680542 655.484497,439.860504 681.802368,441.574310 
	C698.154968,442.639130 714.401794,441.374939 730.308960,436.949768 
	C737.516663,434.944702 744.760681,433.006195 752.081482,431.486816 
	C763.865051,429.041321 775.717285,426.993713 787.374573,432.274017 
	C805.182495,440.340240 822.174622,437.890808 838.186890,427.629028 
	C851.724182,418.953400 857.055847,400.570312 849.745728,387.133545 
	C842.374268,373.584015 830.873352,364.362915 815.154236,364.301331 
	C789.202148,364.199646 763.196838,364.990875 737.301697,366.720306 
	C712.345337,368.386993 687.484131,370.225555 662.457153,368.378937 
	C646.315796,367.187897 630.215149,367.646820 614.170776,370.578217 
	C598.150024,373.505249 582.060730,376.443512 565.868713,377.944183 
	C547.483154,379.648193 528.956848,379.998016 510.479950,380.511963 
	C484.332916,381.239258 458.109314,382.299835 432.160950,378.033356 
	C409.485870,374.305054 387.378510,375.846191 365.641510,383.035065 
	C346.463989,389.377472 327.446442,389.557770 308.489563,382.213928 
	C297.892792,378.108765 287.383820,378.631561 276.941010,382.903107 
	C262.265045,388.906158 251.462524,398.425903 250.072464,415.138306 
	C248.642700,432.328430 258.016418,443.625153 272.670563,450.499847 
	C279.842224,453.864227 287.977722,455.174011 296.109192,457.539490 
	C294.968201,458.729340 293.580597,460.486542 291.893829,461.882233 
	C284.068237,468.357422 276.128082,474.693970 268.289246,481.153351 
	C259.573944,488.334930 255.541641,497.933075 255.951691,508.908264 
	C256.845947,532.844849 251.607330,555.839661 246.650894,578.971130 
	C241.566132,602.701477 236.710648,626.500122 232.620987,650.416992 
	C230.325867,663.839233 230.450500,677.669128 228.272583,691.119019 
	C225.910904,705.703857 221.748367,719.987915 219.055389,734.529846 
	C209.811813,784.444580 205.309387,834.864014 205.452087,885.585388 
	C205.555634,922.389771 206.415070,959.232361 208.421127,995.976807 
	C209.761520,1020.528320 212.204239,1045.226807 216.846252,1069.341064 
	C223.407913,1103.427856 232.105240,1137.123657 240.545456,1170.822266 
	C248.001419,1200.590820 255.152435,1230.266113 254.258057,1261.326782 
	C254.046417,1268.677002 255.815308,1276.237061 257.621124,1283.463623 
	C262.753571,1304.002441 267.193512,1324.638794 268.516449,1345.816040 
	C269.606995,1363.273071 270.496002,1380.743408 271.379486,1398.212524 
	C273.643677,1442.983765 275.837280,1487.770264 272.851044,1532.583374 
	C272.025177,1544.976562 271.211609,1557.607544 264.069794,1568.546387 
	C261.523224,1572.446777 258.291077,1575.989258 256.310089,1580.142700 
	C254.530655,1583.873413 252.308670,1588.740845 253.349014,1592.178833 
	C255.317291,1598.683472 258.475311,1605.406860 262.918732,1610.480835 
	C279.513184,1629.429321 312.261383,1631.852295 333.820496,1616.991333 
	C341.123718,1611.957275 349.009796,1607.436035 357.203278,1604.082275 
	C397.120575,1587.742676 438.863861,1580.144653 481.910858,1580.081909 
	C512.231689,1580.037598 542.553406,1580.769409 572.875122,1581.116455 
	C612.649780,1581.571655 651.742737,1587.856323 690.815491,1594.543213 
	C702.074524,1596.470093 713.523132,1597.793213 724.926636,1598.188110 
	C732.102356,1598.436523 734.562561,1595.082275 734.991699,1587.864868 
	C735.283752,1582.953857 735.047546,1578.011597 735.047546,1573.268799 
	C737.423218,1577.116577 739.348816,1581.391235 742.283325,1584.796509 
	C758.476868,1603.587524 790.968018,1604.882202 808.780701,1587.594360 
	C815.380920,1581.188721 819.728943,1573.488403 818.848877,1564.071045 
	C818.219421,1557.335327 816.736572,1550.602905 814.901123,1544.075073 
	C812.366455,1535.059937 805.880554,1529.834595 796.756897,1528.265991 
	C790.534546,1527.196045 784.206482,1526.191406 777.919495,1526.152588 
	C760.320251,1526.044067 743.171814,1523.045654 726.010437,1519.549316 
	C704.014709,1515.068237 682.057068,1509.832153 659.812378,1507.291260 
	C634.709229,1504.423828 609.318787,1503.417969 584.029358,1502.978394 
	C539.064636,1502.196655 494.071869,1501.839600 449.112000,1502.583862 
	C431.929901,1502.868408 414.736298,1506.239136 397.681152,1509.020142 
	C387.089966,1510.746948 376.748749,1514.006836 366.998749,1516.405640 
	C366.998749,1509.450439 366.897461,1502.308472 367.015015,1495.170044 
	C367.838593,1445.155151 367.010773,1395.170410 361.715668,1345.406494 
	C359.024261,1320.112671 354.959351,1294.946045 350.871796,1269.826660 
	C348.285065,1253.930298 344.081268,1238.299561 341.402374,1222.415039 
	C339.136658,1208.980469 339.535126,1194.955078 336.108307,1181.884888 
	C326.270508,1144.361938 317.184387,1106.705200 311.591888,1068.318970 
	C307.515686,1040.340576 303.054321,1012.290894 301.410278,984.118591 
	C299.461517,950.723816 300.003571,917.162170 300.102722,883.674744 
	C300.221222,843.646057 303.394653,803.800720 309.750916,764.264038 
	C314.158844,736.846313 319.044830,709.505432 323.819305,681.216248 
M1577.497192,851.319397 
	C1577.497192,822.705994 1577.497192,794.092590 1577.497192,765.148010 
	C1554.722168,759.938416 1530.671997,759.037170 1506.505981,761.111755 
	C1466.869141,764.514648 1429.087158,774.568054 1393.587524,794.192932 
	C1393.345215,792.641968 1393.186157,791.701843 1393.052612,790.758118 
	C1390.861938,775.274841 1382.057983,764.805481 1366.627075,762.241455 
	C1355.383301,760.373169 1343.763428,760.267273 1332.309692,760.248840 
	C1279.012573,760.162964 1225.715210,760.383850 1172.417847,760.487915 
	C1163.166504,760.506042 1153.915039,760.490540 1144.348389,760.490540 
	C1144.348389,765.481384 1144.596069,769.475769 1144.273682,773.423645 
	C1143.991455,776.879883 1145.349854,778.763794 1148.195801,780.590820 
	C1163.310059,790.293823 1178.245605,800.275085 1193.331177,810.023438 
	C1196.071533,811.794373 1197.351074,813.609375 1197.348999,817.124390 
	C1197.241455,998.259583 1197.242920,1179.394897 1197.339355,1360.530151 
	C1197.341187,1364.014160 1196.184814,1365.824341 1193.280273,1367.553101 
	C1175.283447,1378.265137 1157.386841,1389.146606 1139.525635,1400.084229 
	C1138.177734,1400.909790 1136.466187,1402.603271 1136.460938,1403.899536 
	C1136.440674,1408.832397 1137.051392,1413.767944 1137.423828,1418.668457 
	C1240.991943,1418.668457 1344.198242,1418.668457 1447.685425,1418.668457 
	C1447.685425,1414.364136 1447.460205,1410.370361 1447.755981,1406.415527 
	C1447.996826,1403.195190 1446.847412,1401.346436 1444.185181,1399.521240 
	C1428.543701,1388.797852 1413.084961,1377.808716 1397.473389,1367.041138 
	C1395.057983,1365.375000 1394.033081,1363.692871 1394.031738,1360.629272 
	C1393.953247,1185.326416 1393.774292,1010.023621 1393.629272,834.720825 
	C1393.627686,832.903870 1393.554443,830.939941 1394.174316,829.292847 
	C1399.236694,815.841064 1406.570557,803.962646 1420.364746,798.102356 
	C1437.403076,790.863647 1440.836304,790.512756 1454.065186,802.504700 
	C1459.970093,807.857483 1465.838257,813.463135 1470.650879,819.772034 
	C1491.741577,847.420166 1512.302979,875.471802 1533.334351,903.165894 
	C1545.200195,918.790894 1557.549927,934.050842 1569.836670,949.350830 
	C1571.424194,951.327454 1573.943359,952.556030 1576.030884,954.131104 
	C1576.514526,953.837708 1576.998169,953.544373 1577.481812,953.250977 
	C1577.481812,919.591919 1577.481812,885.932861 1577.497192,851.319397 
z"/>
<path fill="#FEFEFE" opacity="1.000000" stroke="none" 
	d="
M1045.680420,1083.000244 
	C1045.751831,1175.488892 1045.850708,1267.477539 1045.797852,1359.466187 
	C1045.795532,1363.444092 1047.057251,1365.684326 1050.319946,1367.848999 
	C1065.842163,1378.148926 1081.116211,1388.822876 1096.639160,1399.121704 
	C1099.804565,1401.221802 1101.206421,1403.408447 1100.824341,1407.192627 
	C1100.478638,1410.617188 1100.751343,1414.104126 1100.751343,1417.773193 
	C1016.742249,1417.773193 933.180237,1417.773193 849.300781,1417.773193 
	C849.300781,1392.606323 849.300781,1367.663330 849.300781,1341.541626 
	C848.098450,1343.115967 847.502991,1343.752930 847.068176,1344.485352 
	C821.807251,1387.030640 784.213135,1412.792358 736.381653,1422.748169 
	C671.635193,1436.224854 613.335938,1420.236206 561.576843,1379.909790 
	C519.892151,1347.432495 493.061371,1304.346069 475.194824,1255.269287 
	C460.216522,1214.126099 453.198212,1171.428467 450.938171,1127.821045 
	C449.365631,1097.478394 449.627106,1067.185547 453.070129,1036.989502 
	C459.492767,980.661804 474.333679,926.971191 505.743164,879.085388 
	C545.686707,818.188843 601.554077,780.981812 673.673706,768.832581 
	C722.817261,760.553894 770.483643,766.868530 817.017029,783.680786 
	C822.612488,785.702271 828.001953,788.406555 833.258911,791.220337 
	C838.492126,794.021423 843.438049,797.359192 849.183350,800.873474 
	C849.183350,798.880676 849.183289,797.317017 849.183289,795.753418 
	C849.182617,722.095825 849.159058,648.438171 849.254883,574.780701 
	C849.259277,571.408447 848.272827,569.447021 845.409485,567.566162 
	C830.256714,557.612732 815.338806,547.301514 800.172485,537.369263 
	C797.012634,535.299927 795.557129,533.187378 795.954224,529.391113 
	C796.313416,525.956604 796.030151,522.454956 796.030151,518.037415 
	C804.652039,518.037415 812.944153,518.058105 821.236145,518.034058 
	C881.876526,517.858398 942.516907,517.583191 1003.157104,517.625671 
	C1009.528198,517.630127 1016.187683,518.631775 1022.210388,520.662415 
	C1036.485474,525.475647 1043.539429,536.347839 1044.913086,551.075745 
	C1045.221680,554.384705 1045.120605,557.736328 1045.124268,561.068420 
	C1045.315063,734.878967 1045.496948,908.689575 1045.680420,1083.000244 
M681.593506,991.090515 
	C679.736145,1018.171265 676.898010,1045.228027 676.232849,1072.338013 
	C674.985474,1123.175781 676.908875,1173.965820 683.129944,1224.495361 
	C687.159241,1257.222778 692.860046,1289.644287 704.083069,1320.809570 
	C710.252747,1337.942017 717.784302,1354.400024 730.695801,1367.735107 
	C744.705688,1382.204590 761.277222,1386.073364 779.931702,1378.438721 
	C808.966919,1366.555786 831.062378,1346.506348 846.823853,1319.491577 
	C848.314270,1316.937134 849.066101,1313.583130 849.082397,1310.594360 
	C849.245361,1280.763062 849.181824,1250.930664 849.181885,1221.098511 
	C849.182190,1088.937134 849.164612,956.775696 849.271057,824.614380 
	C849.274109,820.822693 848.529053,818.362122 844.792053,816.983582 
	C835.307129,813.484741 826.141602,808.740356 816.390442,806.411194 
	C781.786560,798.145691 752.614868,807.501526 731.170349,836.356873 
	C723.013611,847.332336 715.862183,859.407471 710.301636,871.893860 
	C693.559875,909.488586 686.496826,949.607666 681.593506,991.090515 
z"/>
<path fill="#FE751F" opacity="1.000000" stroke="none" 
	d="
M1272.240479,1548.612305 
	C1281.548462,1542.358154 1290.654785,1536.505737 1299.471436,1530.245483 
	C1317.660767,1517.329834 1338.345581,1511.452148 1360.077026,1509.117554 
	C1408.575317,1503.906982 1457.058228,1498.329468 1505.673706,1494.508667 
	C1541.675903,1491.679199 1577.872925,1490.448120 1613.990967,1490.294678 
	C1637.061890,1490.196533 1660.170044,1493.099365 1683.217285,1495.153076 
	C1698.930176,1496.553223 1711.987427,1503.760498 1722.892578,1515.171143 
	C1727.015869,1519.485718 1731.541260,1523.527222 1736.359253,1527.040527 
	C1743.443970,1532.206787 1748.492676,1530.814087 1750.464722,1522.279419 
	C1752.771851,1512.294800 1754.655518,1501.907715 1754.525391,1491.723389 
	C1754.182861,1464.918945 1753.089111,1438.103149 1751.467529,1411.341919 
	C1749.825806,1384.249268 1747.408447,1357.197021 1744.916504,1330.165161 
	C1743.297363,1312.601196 1740.640503,1295.133545 1738.990845,1277.571655 
	C1737.355591,1260.163818 1735.995850,1242.710083 1735.223755,1225.245239 
	C1733.046021,1175.987671 1725.108521,1127.797729 1712.657959,1080.027344 
	C1706.024170,1054.574951 1703.214844,1028.000732 1700.187988,1001.758911 
	C1693.483887,943.637634 1696.837158,885.255188 1696.900269,826.955811 
	C1696.927734,801.487610 1696.026123,776.001831 1694.865967,750.555115 
	C1694.169556,735.277161 1691.792236,720.082520 1690.820435,704.809082 
	C1688.971436,675.749573 1692.460327,646.937805 1695.466187,618.101624 
	C1699.197632,582.305176 1705.972534,547.021179 1712.298096,511.637360 
	C1715.569336,493.338837 1717.020630,474.714966 1719.367554,455.642242 
	C1711.786133,454.616577 1704.443726,453.651825 1697.109985,452.625397 
	C1679.314331,450.134583 1661.577759,447.071350 1643.714111,445.254852 
	C1624.510376,443.302063 1605.202637,441.718262 1585.915649,441.381134 
	C1550.596802,440.763763 1515.252808,440.739227 1479.931885,441.281525 
	C1437.614380,441.931274 1395.427856,445.070129 1353.337158,449.620392 
	C1334.970093,451.605957 1316.514038,452.850525 1298.073486,454.048615 
	C1283.412598,455.001160 1270.121216,450.852356 1259.979736,439.986176 
	C1243.464355,422.290497 1249.178345,395.801605 1272.147705,386.069794 
	C1282.231934,381.797241 1293.494995,379.359070 1304.440796,378.260498 
	C1328.946655,375.801025 1353.595215,374.786774 1378.174683,373.031403 
	C1412.228271,370.599426 1446.238892,367.362396 1480.327515,365.676239 
	C1527.602295,363.337799 1574.937012,362.615814 1622.176758,366.831238 
	C1635.250244,367.997833 1648.258667,369.945526 1661.272095,371.717468 
	C1676.268677,373.759491 1688.779419,381.163666 1700.581055,390.151093 
	C1704.804810,393.367554 1709.349121,396.201477 1713.925903,398.907959 
	C1723.273560,404.435822 1732.344482,403.940948 1740.715332,396.831482 
	C1746.551880,391.874481 1752.254028,386.754486 1757.909058,381.589844 
	C1765.723389,374.453094 1774.314697,372.167236 1784.557251,376.010071 
	C1799.606689,381.656311 1813.048828,389.723328 1824.127930,401.394073 
	C1829.045654,406.574341 1832.067383,411.784912 1828.676514,420.085541 
	C1825.834595,427.042694 1827.138428,435.569733 1825.418945,443.131592 
	C1819.485229,469.224854 1812.668945,495.120331 1806.937500,521.255310 
	C1804.274292,533.398865 1803.435791,545.935608 1801.590454,558.267212 
	C1798.391846,579.640564 1795.550659,601.084656 1791.630493,622.327698 
	C1787.899048,642.548645 1787.696289,662.783569 1789.595337,683.048462 
	C1793.106934,720.522583 1797.254517,757.883606 1795.795532,795.687622 
	C1794.433472,830.978699 1794.196899,866.325928 1794.106934,901.650085 
	C1794.002197,942.851868 1797.776001,983.843018 1802.787109,1024.695923 
	C1805.723633,1048.635254 1807.836548,1072.867920 1813.337036,1096.259155 
	C1823.707886,1140.362183 1828.672363,1185.130371 1832.988647,1229.999878 
	C1837.102417,1272.761475 1840.443359,1315.619873 1842.992554,1358.503052 
	C1845.393799,1398.897339 1846.735596,1439.368774 1847.740601,1479.826294 
	C1848.357666,1504.661865 1843.838989,1528.796265 1834.379639,1551.982544 
	C1825.325317,1574.175903 1809.062256,1585.046753 1785.279053,1584.827881 
	C1753.267334,1584.533203 1721.474731,1581.621704 1689.682495,1577.840576 
	C1667.400635,1575.190430 1644.875244,1574.335205 1622.428955,1573.370972 
	C1574.888794,1571.328857 1527.493530,1574.338989 1480.193115,1578.775757 
	C1451.524048,1581.465088 1422.908447,1584.747803 1394.292969,1587.977783 
	C1373.664917,1590.306152 1354.042114,1596.869751 1334.491821,1603.373901 
	C1319.893066,1608.230957 1305.818848,1614.670776 1291.203735,1619.469971 
	C1281.628906,1622.614136 1271.525146,1624.182007 1261.615601,1626.251343 
	C1258.758545,1626.847900 1255.702026,1627.363770 1253.692749,1623.874756 
	C1253.233643,1623.077515 1251.005859,1623.202026 1249.576782,1623.075073 
	C1237.834229,1622.032227 1227.177246,1618.442749 1218.329834,1610.271484 
	C1200.597412,1593.894287 1202.308594,1568.314209 1222.822266,1555.385132 
	C1229.810791,1550.980347 1238.277344,1548.673218 1246.341064,1546.355591 
	C1249.180298,1545.539673 1252.961426,1547.206055 1256.086060,1548.354736 
	C1261.382935,1550.302368 1266.557129,1551.109741 1272.240479,1548.612305 
z"/>
<path fill="#FE751F" opacity="1.000000" stroke="none" 
	d="
M323.768250,681.673218 
	C319.044830,709.505432 314.158844,736.846313 309.750916,764.264038 
	C303.394653,803.800720 300.221222,843.646057 300.102722,883.674744 
	C300.003571,917.162170 299.461517,950.723816 301.410278,984.118591 
	C303.054321,1012.290894 307.515686,1040.340576 311.591888,1068.318970 
	C317.184387,1106.705200 326.270508,1144.361938 336.108307,1181.884888 
	C339.535126,1194.955078 339.136658,1208.980469 341.402374,1222.415039 
	C344.081268,1238.299561 348.285065,1253.930298 350.871796,1269.826660 
	C354.959351,1294.946045 359.024261,1320.112671 361.715668,1345.406494 
	C367.010773,1395.170410 367.838593,1445.155151 367.015015,1495.170044 
	C366.897461,1502.308472 366.998749,1509.450439 366.998749,1516.405640 
	C376.748749,1514.006836 387.089966,1510.746948 397.681152,1509.020142 
	C414.736298,1506.239136 431.929901,1502.868408 449.112000,1502.583862 
	C494.071869,1501.839600 539.064636,1502.196655 584.029358,1502.978394 
	C609.318787,1503.417969 634.709229,1504.423828 659.812378,1507.291260 
	C682.057068,1509.832153 704.014709,1515.068237 726.010437,1519.549316 
	C743.171814,1523.045654 760.320251,1526.044067 777.919495,1526.152588 
	C784.206482,1526.191406 790.534546,1527.196045 796.756897,1528.265991 
	C805.880554,1529.834595 812.366455,1535.059937 814.901123,1544.075073 
	C816.736572,1550.602905 818.219421,1557.335327 818.848877,1564.071045 
	C819.728943,1573.488403 815.380920,1581.188721 808.780701,1587.594360 
	C790.968018,1604.882202 758.476868,1603.587524 742.283325,1584.796509 
	C739.348816,1581.391235 737.423218,1577.116577 735.047546,1573.268799 
	C735.047546,1578.011597 735.283752,1582.953857 734.991699,1587.864868 
	C734.562561,1595.082275 732.102356,1598.436523 724.926636,1598.188110 
	C713.523132,1597.793213 702.074524,1596.470093 690.815491,1594.543213 
	C651.742737,1587.856323 612.649780,1581.571655 572.875122,1581.116455 
	C542.553406,1580.769409 512.231689,1580.037598 481.910858,1580.081909 
	C438.863861,1580.144653 397.120575,1587.742676 357.203278,1604.082275 
	C349.009796,1607.436035 341.123718,1611.957275 333.820496,1616.991333 
	C312.261383,1631.852295 279.513184,1629.429321 262.918732,1610.480835 
	C258.475311,1605.406860 255.317291,1598.683472 253.349014,1592.178833 
	C252.308670,1588.740845 254.530655,1583.873413 256.310089,1580.142700 
	C258.291077,1575.989258 261.523224,1572.446777 264.069794,1568.546387 
	C271.211609,1557.607544 272.025177,1544.976562 272.851044,1532.583374 
	C275.837280,1487.770264 273.643677,1442.983765 271.379486,1398.212524 
	C270.496002,1380.743408 269.606995,1363.273071 268.516449,1345.816040 
	C267.193512,1324.638794 262.753571,1304.002441 257.621124,1283.463623 
	C255.815308,1276.237061 254.046417,1268.677002 254.258057,1261.326782 
	C255.152435,1230.266113 248.001419,1200.590820 240.545456,1170.822266 
	C232.105240,1137.123657 223.407913,1103.427856 216.846252,1069.341064 
	C212.204239,1045.226807 209.761520,1020.528320 208.421127,995.976807 
	C206.415070,959.232361 205.555634,922.389771 205.452087,885.585388 
	C205.309387,834.864014 209.811813,784.444580 219.055389,734.529846 
	C221.748367,719.987915 225.910904,705.703857 228.272583,691.119019 
	C230.450500,677.669128 230.325867,663.839233 232.620987,650.416992 
	C236.710648,626.500122 241.566132,602.701477 246.650894,578.971130 
	C251.607330,555.839661 256.845947,532.844849 255.951691,508.908264 
	C255.541641,497.933075 259.573944,488.334930 268.289246,481.153351 
	C276.128082,474.693970 284.068237,468.357422 291.893829,461.882233 
	C293.580597,460.486542 294.968201,458.729340 296.109192,457.539490 
	C287.977722,455.174011 279.842224,453.864227 272.670563,450.499847 
	C258.016418,443.625153 248.642700,432.328430 250.072464,415.138306 
	C251.462524,398.425903 262.265045,388.906158 276.941010,382.903107 
	C287.383820,378.631561 297.892792,378.108765 308.489563,382.213928 
	C327.446442,389.557770 346.463989,389.377472 365.641510,383.035065 
	C387.378510,375.846191 409.485870,374.305054 432.160950,378.033356 
	C458.109314,382.299835 484.332916,381.239258 510.479950,380.511963 
	C528.956848,379.998016 547.483154,379.648193 565.868713,377.944183 
	C582.060730,376.443512 598.150024,373.505249 614.170776,370.578217 
	C630.215149,367.646820 646.315796,367.187897 662.457153,368.378937 
	C687.484131,370.225555 712.345337,368.386993 737.301697,366.720306 
	C763.196838,364.990875 789.202148,364.199646 815.154236,364.301331 
	C830.873352,364.362915 842.374268,373.584015 849.745728,387.133545 
	C857.055847,400.570312 851.724182,418.953400 838.186890,427.629028 
	C822.174622,437.890808 805.182495,440.340240 787.374573,432.274017 
	C775.717285,426.993713 763.865051,429.041321 752.081482,431.486816 
	C744.760681,433.006195 737.516663,434.944702 730.308960,436.949768 
	C714.401794,441.374939 698.154968,442.639130 681.802368,441.574310 
	C655.484497,439.860504 629.661072,443.680542 603.728760,447.150604 
	C583.115601,449.908905 562.408875,452.393372 541.662109,453.613434 
	C518.913208,454.951202 496.025452,455.760864 473.284393,454.787537 
	C456.613281,454.073975 440.017120,450.469055 423.503723,447.505585 
	C403.585602,443.931122 383.890747,442.724335 364.250214,448.997375 
	C360.976013,450.043121 359.543488,450.989258 359.679932,454.973846 
	C360.414398,476.423218 356.823883,497.478088 352.358551,518.320862 
	C346.579834,545.294128 339.793732,572.051392 334.005341,599.022766 
	C328.196228,626.090942 325.474396,653.601990 323.768250,681.673218 
z"/>
<path fill="#FEFEFE" opacity="1.000000" stroke="none" 
	d="
M1577.489502,851.796631 
	C1577.481812,885.932861 1577.481812,919.591919 1577.481812,953.250977 
	C1576.998169,953.544373 1576.514526,953.837708 1576.030884,954.131104 
	C1573.943359,952.556030 1571.424194,951.327454 1569.836670,949.350830 
	C1557.549927,934.050842 1545.200195,918.790894 1533.334351,903.165894 
	C1512.302979,875.471802 1491.741577,847.420166 1470.650879,819.772034 
	C1465.838257,813.463135 1459.970093,807.857483 1454.065186,802.504700 
	C1440.836304,790.512756 1437.403076,790.863647 1420.364746,798.102356 
	C1406.570557,803.962646 1399.236694,815.841064 1394.174316,829.292847 
	C1393.554443,830.939941 1393.627686,832.903870 1393.629272,834.720825 
	C1393.774292,1010.023621 1393.953247,1185.326416 1394.031738,1360.629272 
	C1394.033081,1363.692871 1395.057983,1365.375000 1397.473389,1367.041138 
	C1413.084961,1377.808716 1428.543701,1388.797852 1444.185181,1399.521240 
	C1446.847412,1401.346436 1447.996826,1403.195190 1447.755981,1406.415527 
	C1447.460205,1410.370361 1447.685425,1414.364136 1447.685425,1418.668457 
	C1344.198242,1418.668457 1240.991943,1418.668457 1137.423828,1418.668457 
	C1137.051392,1413.767944 1136.440674,1408.832397 1136.460938,1403.899536 
	C1136.466187,1402.603271 1138.177734,1400.909790 1139.525635,1400.084229 
	C1157.386841,1389.146606 1175.283447,1378.265137 1193.280273,1367.553101 
	C1196.184814,1365.824341 1197.341187,1364.014160 1197.339355,1360.530151 
	C1197.242920,1179.394897 1197.241455,998.259583 1197.348999,817.124390 
	C1197.351074,813.609375 1196.071533,811.794373 1193.331177,810.023438 
	C1178.245605,800.275085 1163.310059,790.293823 1148.195801,780.590820 
	C1145.349854,778.763794 1143.991455,776.879883 1144.273682,773.423645 
	C1144.596069,769.475769 1144.348389,765.481384 1144.348389,760.490540 
	C1153.915039,760.490540 1163.166504,760.506042 1172.417847,760.487915 
	C1225.715210,760.383850 1279.012573,760.162964 1332.309692,760.248840 
	C1343.763428,760.267273 1355.383301,760.373169 1366.627075,762.241455 
	C1382.057983,764.805481 1390.861938,775.274841 1393.052612,790.758118 
	C1393.186157,791.701843 1393.345215,792.641968 1393.587524,794.192932 
	C1429.087158,774.568054 1466.869141,764.514648 1506.505981,761.111755 
	C1530.671997,759.037170 1554.722168,759.938416 1577.497192,765.148010 
	C1577.497192,794.092590 1577.497192,822.705994 1577.489502,851.796631 
z"/>
<path fill="#000000" opacity="1.000000" stroke="none" 
	d="
M681.665649,990.643921 
	C686.496826,949.607666 693.559875,909.488586 710.301636,871.893860 
	C715.862183,859.407471 723.013611,847.332336 731.170349,836.356873 
	C752.614868,807.501526 781.786560,798.145691 816.390442,806.411194 
	C826.141602,808.740356 835.307129,813.484741 844.792053,816.983582 
	C848.529053,818.362122 849.274109,820.822693 849.271057,824.614380 
	C849.164612,956.775696 849.182190,1088.937134 849.181885,1221.098511 
	C849.181824,1250.930664 849.245361,1280.763062 849.082397,1310.594360 
	C849.066101,1313.583130 848.314270,1316.937134 846.823853,1319.491577 
	C831.062378,1346.506348 808.966919,1366.555786 779.931702,1378.438721 
	C761.277222,1386.073364 744.705688,1382.204590 730.695801,1367.735107 
	C717.784302,1354.400024 710.252747,1337.942017 704.083069,1320.809570 
	C692.860046,1289.644287 687.159241,1257.222778 683.129944,1224.495361 
	C676.908875,1173.965820 674.985474,1123.175781 676.232849,1072.338013 
	C676.898010,1045.228027 679.736145,1018.171265 681.665649,990.643921 
z"/>
</svg>